<svg width="32" height="32" viewBox="0 0 32 32" fill="none" xmlns="http://www.w3.org/2000/svg">
<path d="M22.6801 18.62C23.5463 18.62 24.3932 18.8769 25.1135 19.3582C25.8337 19.8394 26.3951 20.5235 26.7266 21.3238C27.0582 22.1242 27.1449 23.0049 26.9759 23.8545C26.8069 24.7041 26.3897 25.4846 25.7772 26.0971C25.1646 26.7097 24.3842 27.1268 23.5345 27.2958C22.6849 27.4648 21.8042 27.3781 21.0039 27.0466C20.2036 26.7151 19.5195 26.1537 19.0382 25.4334C18.5569 24.7131 18.3001 23.8663 18.3001 23C18.3001 21.8384 18.7615 20.7243 19.5829 19.9029C20.4043 19.0815 21.5184 18.62 22.6801 18.62V18.62ZM22.6801 16C21.2956 16 19.9422 16.4105 18.7911 17.1797C17.6399 17.9489 16.7427 19.0421 16.2129 20.3212C15.6831 21.6003 15.5445 23.0078 15.8146 24.3656C16.0847 25.7235 16.7513 26.9708 17.7303 27.9497C18.7093 28.9287 19.9566 29.5954 21.3144 29.8655C22.6723 30.1356 24.0798 29.997 25.3588 29.4672C26.6379 28.9373 27.7312 28.0401 28.5003 26.889C29.2695 25.7378 29.6801 24.3845 29.6801 23C29.6801 21.1435 28.9426 19.363 27.6298 18.0503C26.317 16.7375 24.5366 16 22.6801 16V16ZM13.6801 26.5C13.6749 26.8962 13.5152 27.2747 13.235 27.5549C12.9548 27.8351 12.5763 27.9948 12.1801 28H3.68005C3.14962 28 2.64091 27.7893 2.26584 27.4142C1.89077 27.0391 1.68005 26.5304 1.68005 26V9C1.68005 8.46957 1.89077 7.96086 2.26584 7.58579C2.64091 7.21071 3.14962 7 3.68005 7H8.18005V5.5C8.18005 5.10218 8.33809 4.72064 8.61939 4.43934C8.9007 4.15804 9.28223 4 9.68005 4C10.0779 4 10.4594 4.15804 10.7407 4.43934C11.022 4.72064 11.1801 5.10218 11.1801 5.5V7H20.3201V5.68C20.3201 5.28218 20.4781 4.90064 20.7594 4.61934C21.0407 4.33804 21.4222 4.18 21.8201 4.18C22.2179 4.18 22.5994 4.33804 22.8807 4.61934C23.162 4.90064 23.3201 5.28218 23.3201 5.68V7H27.6801C28.2105 7 28.7192 7.21071 29.0943 7.58579C29.4693 7.96086 29.6801 8.46957 29.6801 9V14.5C29.6749 14.8962 29.5152 15.2747 29.235 15.5549C28.9548 15.8351 28.5763 15.9948 28.1801 16V16C27.7822 16 27.4007 15.842 27.1194 15.5607C26.8381 15.2794 26.6801 14.8978 26.6801 14.5V13H4.68005V25H12.1801C12.5763 25.0052 12.9548 25.1649 13.235 25.4451C13.5152 25.7253 13.6749 26.1038 13.6801 26.5V26.5ZM24.5201 23.8L23.8201 23.08V21.08C23.8201 20.8148 23.7147 20.5604 23.5272 20.3729C23.3396 20.1854 23.0853 20.08 22.8201 20.08C22.5548 20.08 22.3005 20.1854 22.1129 20.3729C21.9254 20.5604 21.8201 20.8148 21.8201 21.08V23.58C21.8185 23.8409 21.919 24.0921 22.1001 24.28L23.1001 25.28C23.2908 25.4714 23.5498 25.5793 23.8201 25.58C24.0838 25.5762 24.3354 25.4684 24.5201 25.28C24.629 25.1899 24.7168 25.0769 24.777 24.949C24.8373 24.821 24.8685 24.6814 24.8685 24.54C24.8685 24.3986 24.8373 24.259 24.777 24.131C24.7168 24.0031 24.629 23.8901 24.5201 23.8V23.8Z" fill="#F2E8CD" fill-opacity="0.5"/>
</svg>
