<svg width="66" height="94" viewBox="0 0 66 94" fill="none" xmlns="http://www.w3.org/2000/svg">
<path d="M48.4435 49.28C48.6302 50.2133 49.0595 51.2027 49.7315 52.248C50.4035 53.256 50.7395 54.04 50.7395 54.6V54.824C50.7395 55.608 50.2728 56 49.3395 56H36.4035C35.4702 56 35.0035 55.608 35.0035 54.824V54.6C35.0035 54.152 35.3768 53.4053 36.1235 52.36C36.8702 51.3147 37.1688 50.288 37.0195 49.28L34.0515 32.088L26.2115 54.208C25.8382 55.3653 25.1102 55.944 24.0275 55.944C22.8328 55.944 21.9928 55.384 21.5075 54.264L12.0995 30.968L9.52351 49.28C9.37417 50.288 9.67284 51.3147 10.4195 52.36C11.1662 53.4053 11.5395 54.152 11.5395 54.6V54.824C11.5395 55.608 11.0728 56 10.1395 56H2.69151C1.75817 56 1.29151 55.608 1.29151 54.824V54.6C1.29151 54.04 1.62751 53.256 2.29951 52.248C3.00884 51.24 3.43817 50.2507 3.58751 49.28L7.56351 22.96C7.71284 21.952 7.35817 20.9253 6.49951 19.88C5.67817 18.8347 5.26751 18.088 5.26751 17.64V17.416C5.26751 16.632 5.73417 16.24 6.66751 16.24H15.0675C16.7102 16.24 17.7742 16.968 18.2595 18.424L25.6515 40.04L32.5955 18.536C33.1182 17.0053 34.1635 16.24 35.7315 16.24H44.3555C45.2888 16.24 45.7555 16.632 45.7555 17.416V17.64C45.7555 18.088 45.3262 18.8347 44.4675 19.88C43.6088 20.9253 43.2728 21.952 43.4595 22.96L48.4435 49.28Z" fill="#F2E8CD"/>
<path d="M48.4435 49.28L47.4609 49.4661L47.4629 49.4761L48.4435 49.28ZM49.7315 52.248L48.8903 52.7888L48.8948 52.7958L48.8995 52.8027L49.7315 52.248ZM36.1235 52.36L35.3098 51.7788L35.3098 51.7788L36.1235 52.36ZM37.0195 49.28L38.0087 49.1335L38.007 49.1216L38.0049 49.1099L37.0195 49.28ZM34.0515 32.088L35.0369 31.9179L34.3864 28.1497L33.109 31.7539L34.0515 32.088ZM26.2115 54.208L25.269 53.8739L25.2642 53.8874L25.2598 53.901L26.2115 54.208ZM21.5075 54.264L20.5803 54.6385L20.585 54.6501L20.59 54.6616L21.5075 54.264ZM12.0995 30.968L13.0267 30.5935L11.6292 27.1328L11.1093 30.8287L12.0995 30.968ZM9.52351 49.28L10.5127 49.4266L10.5138 49.4193L9.52351 49.28ZM10.4195 52.36L11.2332 51.7788L11.2332 51.7788L10.4195 52.36ZM2.29951 52.248L1.4817 51.6725L1.47445 51.6828L1.46746 51.6933L2.29951 52.248ZM3.58751 49.28L4.57588 49.4321L4.57629 49.4294L3.58751 49.28ZM7.56351 22.96L8.55229 23.1094L8.55271 23.1065L7.56351 22.96ZM6.49951 19.88L5.71319 20.4978L5.71989 20.5064L5.72678 20.5147L6.49951 19.88ZM18.2595 18.424L17.3108 18.7402L17.3133 18.7476L18.2595 18.424ZM25.6515 40.04L24.7053 40.3636L25.6787 43.21L26.6031 40.3473L25.6515 40.04ZM32.5955 18.536L31.6492 18.2129L31.6465 18.2208L31.6439 18.2287L32.5955 18.536ZM43.4595 22.96L42.4762 23.1421L42.477 23.1461L43.4595 22.96ZM47.4629 49.4761C47.6803 50.5632 48.1703 51.6688 48.8903 52.7888L50.5727 51.7072C49.9487 50.7366 49.58 49.8635 49.4241 49.0839L47.4629 49.4761ZM48.8995 52.8027C49.5631 53.7982 49.7395 54.3633 49.7395 54.6H51.7395C51.7395 53.7167 51.2439 52.7138 50.5636 51.6933L48.8995 52.8027ZM49.7395 54.6V54.824H51.7395V54.6H49.7395ZM49.7395 54.824C49.7395 54.9229 49.7246 54.9644 49.7225 54.9697C49.7217 54.9717 49.7233 54.9672 49.7289 54.9594C49.7346 54.9514 49.7411 54.9447 49.7463 54.9403C49.7673 54.9227 49.6904 55 49.3395 55V57C49.9219 57 50.545 56.8813 51.0327 56.4717C51.5538 56.034 51.7395 55.4203 51.7395 54.824H49.7395ZM49.3395 55H36.4035V57H49.3395V55ZM36.4035 55C36.0526 55 35.9757 54.9227 35.9967 54.9403C36.002 54.9447 36.0084 54.9514 36.0141 54.9594C36.0197 54.9672 36.0213 54.9717 36.0205 54.9697C36.0184 54.9644 36.0035 54.9229 36.0035 54.824H34.0035C34.0035 55.4203 34.1893 56.034 34.7103 56.4717C35.198 56.8813 35.8211 57 36.4035 57V55ZM36.0035 54.824V54.6H34.0035V54.824H36.0035ZM36.0035 54.6C36.0035 54.6139 36.0106 54.4858 36.1779 54.1512C36.3323 53.8424 36.5799 53.4414 36.9372 52.9412L35.3098 51.7788C34.9204 52.3239 34.608 52.8189 34.3891 53.2568C34.183 53.6689 34.0035 54.1381 34.0035 54.6H36.0035ZM36.9372 52.9412C37.7933 51.7427 38.2052 50.4599 38.0087 49.1335L36.0303 49.4265C36.1325 50.1161 35.947 50.8866 35.3098 51.7788L36.9372 52.9412ZM38.0049 49.1099L35.0369 31.9179L33.0661 32.2581L36.0341 49.4501L38.0049 49.1099ZM33.109 31.7539L25.269 53.8739L27.1541 54.5421L34.9941 32.4221L33.109 31.7539ZM25.2598 53.901C25.1153 54.349 24.932 54.5931 24.7633 54.7272C24.6043 54.8535 24.3816 54.944 24.0275 54.944V56.944C24.756 56.944 25.4387 56.7452 26.0078 56.2928C26.5671 55.8482 26.9344 55.2243 27.1632 54.515L25.2598 53.901ZM24.0275 54.944C23.5907 54.944 23.2837 54.8436 23.0562 54.6919C22.8272 54.5393 22.6073 54.287 22.4251 53.8664L20.59 54.6616C20.893 55.361 21.3358 55.9487 21.9468 56.3561C22.5593 56.7644 23.2696 56.944 24.0275 56.944V54.944ZM22.4348 53.8895L13.0267 30.5935L11.1723 31.3425L20.5803 54.6385L22.4348 53.8895ZM11.1093 30.8287L8.53326 49.1407L10.5138 49.4193L13.0898 31.1073L11.1093 30.8287ZM8.5343 49.1335C8.33779 50.4599 8.74968 51.7427 9.60577 52.9412L11.2332 51.7788C10.596 50.8866 10.4106 50.1161 10.5127 49.4265L8.5343 49.1335ZM9.60577 52.9412C9.96307 53.4414 10.2107 53.8424 10.3651 54.1512C10.5324 54.4858 10.5395 54.6139 10.5395 54.6H12.5395C12.5395 54.1381 12.36 53.6689 12.1539 53.2568C11.935 52.8189 11.6226 52.3239 11.2332 51.7788L9.60577 52.9412ZM10.5395 54.6V54.824H12.5395V54.6H10.5395ZM10.5395 54.824C10.5395 54.9229 10.5246 54.9644 10.5225 54.9697C10.5217 54.9717 10.5233 54.9672 10.5289 54.9594C10.5346 54.9514 10.5411 54.9447 10.5463 54.9403C10.5673 54.9227 10.4904 55 10.1395 55V57C10.7219 57 11.345 56.8813 11.8327 56.4717C12.3538 56.034 12.5395 55.4203 12.5395 54.824H10.5395ZM10.1395 55H2.69151V57H10.1395V55ZM2.69151 55C2.34059 55 2.26371 54.9227 2.2847 54.9403C2.28995 54.9447 2.2964 54.9514 2.30212 54.9594C2.30772 54.9672 2.30932 54.9717 2.3085 54.9697C2.30643 54.9644 2.29151 54.9229 2.29151 54.824H0.291507C0.291507 55.4203 0.477262 56.034 0.998315 56.4717C1.48597 56.8813 2.10909 57 2.69151 57V55ZM2.29151 54.824V54.6H0.291507V54.824H2.29151ZM2.29151 54.6C2.29151 54.3633 2.46788 53.7982 3.13156 52.8027L1.46746 51.6933C0.787137 52.7138 0.291507 53.7167 0.291507 54.6H2.29151ZM3.11731 52.8235C3.89332 51.7208 4.39789 50.589 4.57588 49.4321L2.59914 49.1279C2.47846 49.9124 2.12436 50.7592 1.4817 51.6725L3.11731 52.8235ZM4.57629 49.4294L8.55229 23.1094L6.57473 22.8106L2.59873 49.1306L4.57629 49.4294ZM8.55271 23.1065C8.7558 21.7357 8.24841 20.4336 7.27223 19.2453L5.72678 20.5147C6.46794 21.417 6.66988 22.1683 6.5743 22.8134L8.55271 23.1065ZM7.28583 19.2622C6.89238 18.7614 6.62057 18.3611 6.45172 18.0541C6.2666 17.7175 6.26751 17.6029 6.26751 17.64H4.26751C4.26751 18.1251 4.47375 18.6078 4.69929 19.0179C4.94111 19.4576 5.2853 19.9532 5.71319 20.4978L7.28583 19.2622ZM6.26751 17.64V17.416H4.26751V17.64H6.26751ZM6.26751 17.416C6.26751 17.3171 6.28243 17.2756 6.2845 17.2703C6.28532 17.2683 6.28372 17.2728 6.27812 17.2806C6.27241 17.2886 6.26595 17.2953 6.2607 17.2997C6.23971 17.3173 6.31659 17.24 6.66751 17.24V15.24C6.08509 15.24 5.46197 15.3587 4.97431 15.7683C4.45326 16.206 4.26751 16.8197 4.26751 17.416H6.26751ZM6.66751 17.24H15.0675V15.24H6.66751V17.24ZM15.0675 17.24C15.7425 17.24 16.2075 17.3887 16.5328 17.6113C16.8522 17.8298 17.1236 18.1786 17.3108 18.7402L19.2082 18.1078C18.9101 17.2134 18.4068 16.4701 17.6622 15.9607C16.9235 15.4553 16.0352 15.24 15.0675 15.24V17.24ZM17.3133 18.7476L24.7053 40.3636L26.5977 39.7164L19.2057 18.1004L17.3133 18.7476ZM26.6031 40.3473L33.5471 18.8433L31.6439 18.2287L24.6999 39.7327L26.6031 40.3473ZM33.5419 18.8591C33.7536 18.2392 34.0419 17.8554 34.3622 17.6209C34.68 17.3882 35.1142 17.24 35.7315 17.24V15.24C34.7808 15.24 33.9084 15.4744 33.1808 16.0071C32.4558 16.5379 31.9601 17.3022 31.6492 18.2129L33.5419 18.8591ZM35.7315 17.24H44.3555V15.24H35.7315V17.24ZM44.3555 17.24C44.7064 17.24 44.7833 17.3173 44.7623 17.2997C44.7571 17.2953 44.7506 17.2886 44.7449 17.2806C44.7393 17.2728 44.7377 17.2683 44.7385 17.2703C44.7406 17.2756 44.7555 17.3171 44.7555 17.416H46.7555C46.7555 16.8197 46.5698 16.206 46.0487 15.7683C45.561 15.3587 44.9379 15.24 44.3555 15.24V17.24ZM44.7555 17.416V17.64H46.7555V17.416H44.7555ZM44.7555 17.64C44.7555 17.5914 44.7609 17.6995 44.5666 18.0375C44.3904 18.3439 44.1064 18.7441 43.6948 19.2453L45.2402 20.5147C45.6873 19.9705 46.0472 19.4748 46.3004 19.0345C46.5354 18.6258 46.7555 18.1366 46.7555 17.64H44.7555ZM43.6948 19.2453C42.7127 20.4408 42.2199 21.758 42.4762 23.1421L44.4428 22.7779C44.3258 22.146 44.505 21.4098 45.2402 20.5147L43.6948 19.2453ZM42.477 23.1461L47.461 49.4661L49.426 49.0939L44.442 22.7739L42.477 23.1461Z" fill="#B7B29A"/>
<path d="M48.3235 74.2548C43.4328 74.2548 39.3262 73.2468 36.0035 71.2308C32.7182 69.1775 31.0755 66.7695 31.0755 64.0068C31.0755 61.0202 32.5688 59.5268 35.5555 59.5268C36.7502 59.5268 37.7768 59.9002 38.6355 60.6468C39.4942 61.3562 40.2222 62.2335 40.8195 63.2788C41.4168 64.3242 42.0142 65.3695 42.6115 66.4148C43.2462 67.4602 44.0675 68.3562 45.0755 69.1028C46.1208 69.8122 47.3528 70.1668 48.7715 70.1668C50.1528 70.1668 51.2168 69.8308 51.9635 69.1588C52.7475 68.4868 53.1395 67.5535 53.1395 66.3588C53.1395 65.0148 52.7475 63.8762 51.9635 62.9428C51.1795 61.9722 50.1528 61.2255 48.8835 60.7028C47.6142 60.1428 46.2142 59.6388 44.6835 59.1908C43.1528 58.7055 41.6222 58.1642 40.0915 57.5668C38.5982 56.9322 37.2168 56.1855 35.9475 55.3268C34.6782 54.4308 33.6328 53.1802 32.8115 51.5748C32.0275 49.9695 31.6355 48.0655 31.6355 45.8628C31.6355 42.1295 33.0542 39.1242 35.8915 36.8468C38.7662 34.5695 42.5182 33.4308 47.1475 33.4308C51.6648 33.4308 55.5475 34.4575 58.7955 36.5108C62.0435 38.5642 63.6488 40.9535 63.6115 43.6788C63.6115 45.0975 63.2008 46.2175 62.3795 47.0388C61.5955 47.8602 60.4195 48.2708 58.8515 48.2708C57.4702 48.2708 56.2942 47.8975 55.3235 47.1508C54.3902 46.4042 53.6622 45.5082 53.1395 44.4628C52.6168 43.4175 52.0942 42.3722 51.5715 41.3268C51.0862 40.2442 50.4515 39.3295 49.6675 38.5828C48.9208 37.8362 48.0062 37.4628 46.9235 37.4628C45.5048 37.4628 44.4408 37.8548 43.7315 38.6388C43.0222 39.3855 42.6675 40.3935 42.6675 41.6628C42.6675 43.2682 43.0595 44.6308 43.8435 45.7508C44.6275 46.8708 45.6355 47.7482 46.8675 48.3828C48.1368 48.9802 49.5368 49.5215 51.0675 50.0068C52.5982 50.4922 54.1102 51.0335 55.6035 51.6308C57.1342 52.2282 58.5155 52.9375 59.7475 53.7588C61.0168 54.5428 62.0435 55.6815 62.8275 57.1748C63.6115 58.6308 64.0035 60.4042 64.0035 62.4948C64.0035 66.1535 62.4915 69.0282 59.4675 71.1188C56.4808 73.2095 52.7662 74.2548 48.3235 74.2548Z" fill="#F2E8CD"/>
<path d="M36.0035 71.2308L35.4735 72.0789L35.4848 72.0858L36.0035 71.2308ZM38.6355 60.6468L37.9793 61.4014L37.9889 61.4097L37.9986 61.4178L38.6355 60.6468ZM40.8195 63.2788L39.9513 63.775L39.9513 63.775L40.8195 63.2788ZM42.6115 66.4148L41.7433 66.911L41.7498 66.9225L41.7567 66.9338L42.6115 66.4148ZM45.0755 69.1028L44.4803 69.9064L44.4969 69.9187L44.514 69.9303L45.0755 69.1028ZM51.9635 69.1588L51.3127 68.3996L51.3035 68.4074L51.2945 68.4155L51.9635 69.1588ZM51.9635 62.9428L51.1856 63.5712L51.1916 63.5786L51.1978 63.586L51.9635 62.9428ZM48.8835 60.7028L48.4799 61.6177L48.4913 61.6228L48.5028 61.6275L48.8835 60.7028ZM44.6835 59.1908L44.3813 60.1441L44.3919 60.1474L44.4026 60.1506L44.6835 59.1908ZM40.0915 57.5668L39.7004 58.4872L39.7141 58.493L39.728 58.4984L40.0915 57.5668ZM35.9475 55.3268L35.3708 56.1438L35.379 56.1495L35.3872 56.1551L35.9475 55.3268ZM32.8115 51.5748L31.9129 52.0137L31.917 52.022L31.9213 52.0303L32.8115 51.5748ZM35.8915 36.8468L35.2705 36.063L35.2656 36.067L35.8915 36.8468ZM58.7955 36.5108L59.3299 35.6656L58.7955 36.5108ZM63.6115 43.6788L62.6115 43.6651V43.6788H63.6115ZM62.3795 47.0388L61.6724 46.3317L61.6642 46.3399L61.6562 46.3483L62.3795 47.0388ZM55.3235 47.1508L54.6988 47.9317L54.7062 47.9376L54.7138 47.9434L55.3235 47.1508ZM51.5715 41.3268L50.659 41.7359L50.6676 41.7551L50.6771 41.774L51.5715 41.3268ZM49.6675 38.5828L48.9604 39.2899L48.969 39.2986L48.9779 39.307L49.6675 38.5828ZM43.7315 38.6388L44.4565 39.3276L44.4649 39.3188L44.473 39.3097L43.7315 38.6388ZM43.8435 45.7508L43.0243 46.3243L43.0243 46.3243L43.8435 45.7508ZM46.8675 48.3828L46.4096 49.2718L46.4255 49.28L46.4417 49.2876L46.8675 48.3828ZM51.0675 50.0068L50.7653 50.9601L50.7653 50.9601L51.0675 50.0068ZM55.6035 51.6308L55.2321 52.5593L55.24 52.5624L55.6035 51.6308ZM59.7475 53.7588L59.1928 54.5909L59.2073 54.6005L59.222 54.6096L59.7475 53.7588ZM62.8275 57.1748L61.9421 57.6397L61.947 57.6489L62.8275 57.1748ZM59.4675 71.1188L58.8988 70.2963L58.894 70.2996L59.4675 71.1188ZM48.3235 73.2548C43.569 73.2548 39.6528 72.2753 36.5222 70.3759L35.4848 72.0858C38.9995 74.2183 43.2967 75.2548 48.3235 75.2548V73.2548ZM36.5335 70.3828C33.4111 68.4313 32.0755 66.2956 32.0755 64.0068H30.0755C30.0755 67.2434 32.0253 69.9237 35.4735 72.0788L36.5335 70.3828ZM32.0755 64.0068C32.0755 62.6676 32.4096 61.8469 32.9026 61.3539C33.3956 60.8609 34.2163 60.5268 35.5555 60.5268V58.5268C33.908 58.5268 32.4887 58.9394 31.4884 59.9397C30.4881 60.9401 30.0755 62.3593 30.0755 64.0068H32.0755ZM35.5555 60.5268C36.5221 60.5268 37.3123 60.8214 37.9793 61.4014L39.2917 59.8922C38.2414 58.9789 36.9782 58.5268 35.5555 58.5268V60.5268ZM37.9986 61.4178C38.7569 62.0442 39.409 62.8259 39.9513 63.775L41.6878 62.7827C41.0354 61.6411 40.2314 60.6681 39.2724 59.8759L37.9986 61.4178ZM39.9513 63.775C40.0259 63.9057 40.1006 64.0363 40.1753 64.167C40.2499 64.2977 40.3246 64.4283 40.3993 64.559C40.4739 64.6897 40.5486 64.8203 40.6233 64.951C40.6979 65.0817 40.7726 65.2123 40.8473 65.343C40.8659 65.3756 40.8846 65.4083 40.9033 65.441C40.9219 65.4736 40.9406 65.5063 40.9593 65.539C40.9779 65.5716 40.9966 65.6043 41.0153 65.637C41.0464 65.6914 41.0401 65.6805 41.0713 65.735C41.0775 65.7459 41.121 65.8221 41.1273 65.833C41.1335 65.8439 41.177 65.9201 41.1833 65.931C41.1895 65.9419 41.233 66.0181 41.2393 66.029C41.2455 66.0399 41.289 66.1161 41.2953 66.127C41.3015 66.1379 41.345 66.2141 41.3513 66.225C41.3575 66.2359 41.373 66.2631 41.3793 66.274C41.3855 66.2849 41.401 66.3121 41.4073 66.323C41.4135 66.3339 41.429 66.3611 41.4353 66.372C41.4415 66.3829 41.457 66.4101 41.4633 66.421C41.4695 66.4319 41.485 66.4591 41.4913 66.47C41.4975 66.4809 41.513 66.5081 41.5193 66.519C41.5255 66.5299 41.541 66.5571 41.5473 66.568C41.5535 66.5789 41.569 66.6061 41.5753 66.617C41.5815 66.6279 41.597 66.6551 41.6033 66.666C41.6095 66.6769 41.625 66.7041 41.6313 66.715C41.6375 66.7259 41.653 66.7531 41.6593 66.764C41.6655 66.7749 41.681 66.8021 41.6873 66.813C41.6935 66.8239 41.709 66.8511 41.7153 66.862C41.7215 66.8729 41.737 66.9001 41.7433 66.911L43.4798 65.9187C43.4549 65.8751 43.3926 65.7662 43.3678 65.7227C43.2931 65.592 43.3304 65.6574 43.2558 65.5267C43.1811 65.396 43.2184 65.4614 43.1438 65.3307C43.0691 65.2 43.1064 65.2654 43.0318 65.1347C42.9571 65.004 42.8824 64.8734 42.8078 64.7427C42.7331 64.612 42.6584 64.4814 42.5838 64.3507C42.5651 64.318 42.5464 64.2854 42.5278 64.2527C42.5091 64.22 42.4904 64.1874 42.4718 64.1547C42.4531 64.122 42.4344 64.0894 42.4158 64.0567C42.3971 64.024 42.3784 63.9914 42.3598 63.9587C42.3411 63.926 42.3224 63.8934 42.3038 63.8607C42.2851 63.828 42.2664 63.7954 42.2478 63.7627C42.2291 63.73 42.2104 63.6974 42.1918 63.6647C42.1731 63.632 42.1544 63.5994 42.1358 63.5667C42.1171 63.534 42.0984 63.5014 42.0798 63.4687C42.0611 63.436 42.0424 63.4034 42.0238 63.3707C42.0051 63.338 41.9864 63.3054 41.9678 63.2727C41.9491 63.24 41.9304 63.2074 41.9118 63.1747C41.8931 63.142 41.8744 63.1094 41.8558 63.0767C41.8371 63.044 41.8184 63.0114 41.7998 62.9787C41.7811 62.946 41.7624 62.9134 41.7438 62.8807C41.7251 62.848 41.7064 62.8154 41.6878 62.7827L39.9513 63.775ZM41.7567 66.9338C42.4604 68.0928 43.3709 69.0846 44.4803 69.9064L45.6707 68.2993C44.7641 67.6277 44.032 66.8275 43.4663 65.8958L41.7567 66.9338ZM44.514 69.9303C45.745 70.7656 47.1782 71.1668 48.7715 71.1668V69.1668C47.5275 69.1668 46.4967 68.8587 45.637 68.2753L44.514 69.9303ZM48.7715 71.1668C50.3067 71.1668 51.643 70.7926 52.6325 69.9021L51.2945 68.4155C50.7906 68.869 49.999 69.1668 48.7715 69.1668V71.1668ZM52.6143 69.9181C53.6559 69.0253 54.1395 67.7945 54.1395 66.3588H52.1395C52.1395 67.3124 51.8392 67.9483 51.3127 68.3996L52.6143 69.9181ZM54.1395 66.3588C54.1395 64.8054 53.6804 63.432 52.7292 62.2996L51.1978 63.586C51.8146 64.3203 52.1395 65.2243 52.1395 66.3588H54.1395ZM52.7414 62.3145C51.8417 61.2005 50.6729 60.3582 49.2643 59.7781L48.5028 61.6275C49.6328 62.0928 50.5173 62.7438 51.1856 63.5712L52.7414 62.3145ZM49.2871 59.7879C47.9725 59.2079 46.5309 58.6896 44.9644 58.2311L44.4026 60.1506C45.8975 60.5881 47.2558 61.0777 48.4799 61.6177L49.2871 59.7879ZM44.9858 58.2376C43.4762 57.759 41.966 57.2249 40.455 56.6352L39.728 58.4984C41.2784 59.1034 42.8295 59.652 44.3813 60.1441L44.9858 58.2376ZM40.4826 56.6465C39.0451 56.0355 37.7208 55.3191 36.5078 54.4985L35.3872 56.1551C36.7128 57.0519 38.1513 57.8288 39.7004 58.4872L40.4826 56.6465ZM36.5242 54.5099C35.4069 53.7212 34.4612 52.6038 33.7018 51.1193L31.9213 52.0303C32.8044 53.7565 33.9495 55.1405 35.3708 56.1438L36.5242 54.5099ZM33.7101 51.136C33.0065 49.6954 32.6355 47.9481 32.6355 45.8628H30.6355C30.6355 48.1829 31.0485 50.2436 31.9129 52.0137L33.7101 51.136ZM32.6355 45.8628C32.6355 42.4235 33.9237 39.7085 36.5175 37.6267L35.2656 36.067C32.1847 38.5398 30.6355 41.8355 30.6355 45.8628H32.6355ZM36.5125 37.6307C39.1684 35.5266 42.6834 34.4308 47.1475 34.4308V32.4308C42.353 32.4308 38.364 33.6124 35.2705 36.063L36.5125 37.6307ZM47.1475 34.4308C51.5094 34.4308 55.1994 35.4205 58.2611 37.3561L59.3299 35.6656C55.8957 33.4945 51.8203 32.4308 47.1475 32.4308V34.4308ZM58.2611 37.3561C61.348 39.3075 62.6424 41.4201 62.6116 43.6651L64.6114 43.6925C64.6553 40.4869 62.7391 37.8208 59.3299 35.6656L58.2611 37.3561ZM62.6115 43.6788C62.6115 44.8948 62.2662 45.7379 61.6724 46.3317L63.0866 47.7459C64.1355 46.6971 64.6115 45.3002 64.6115 43.6788H62.6115ZM61.6562 46.3483C61.1238 46.9061 60.2532 47.2708 58.8515 47.2708V49.2708C60.5858 49.2708 62.0672 48.8142 63.1029 47.7293L61.6562 46.3483ZM58.8515 47.2708C57.6611 47.2708 56.7069 46.9534 55.9332 46.3582L54.7138 47.9434C55.8814 48.8416 57.2793 49.2708 58.8515 49.2708V47.2708ZM55.9482 46.37C55.1252 45.7116 54.4904 44.9285 54.0339 44.0156L52.2451 44.91C52.834 46.0878 53.6551 47.0967 54.6988 47.9317L55.9482 46.37ZM54.0339 44.0156C53.9465 43.8408 53.9254 43.7984 53.8379 43.6236C53.7505 43.4488 53.7294 43.4064 53.6419 43.2316C53.5545 43.0568 53.5334 43.0144 53.4459 42.8396C53.3585 42.6648 53.3374 42.6224 53.2499 42.4476C53.2064 42.3605 53.1955 42.3387 53.1519 42.2516C53.1084 42.1645 53.0975 42.1427 53.0539 42.0556C53.0104 41.9685 52.9995 41.9467 52.9559 41.8596C52.945 41.8378 52.9546 41.8569 52.9437 41.8351C52.9328 41.8133 52.9423 41.8324 52.9314 41.8106C52.9205 41.7888 52.9301 41.8079 52.9192 41.7861C52.9083 41.7643 52.9178 41.7834 52.9069 41.7616C52.9069 41.7616 52.8579 41.6636 52.8579 41.6636C52.7708 41.4894 52.7491 41.4459 52.6619 41.2716C52.6402 41.2281 52.6715 41.2907 52.6497 41.2471C52.6487 41.2451 52.6476 41.243 52.6466 41.241C52.6456 41.2389 52.6446 41.2369 52.6436 41.2349C52.6425 41.2328 52.6415 41.2308 52.6405 41.2287C52.6395 41.2267 52.6385 41.2247 52.6374 41.2226C52.6364 41.2206 52.6354 41.2185 52.6344 41.2165C52.6334 41.2144 52.6323 41.2124 52.6313 41.2104C52.6303 41.2083 52.6293 41.2063 52.6282 41.2042C52.6272 41.2022 52.6262 41.2002 52.6252 41.1981C52.6242 41.1961 52.6231 41.194 52.6221 41.192C52.6211 41.1899 52.6201 41.1879 52.6191 41.1859C52.618 41.1838 52.617 41.1818 52.616 41.1797C52.615 41.1777 52.614 41.1757 52.6129 41.1736C52.6119 41.1716 52.6109 41.1695 52.6099 41.1675C52.6089 41.1654 52.6078 41.1634 52.6068 41.1614C52.6058 41.1593 52.6048 41.1573 52.6037 41.1552C52.6027 41.1532 52.6017 41.1512 52.6007 41.1491C52.5997 41.1471 52.5986 41.145 52.5976 41.143C52.5966 41.1409 52.5956 41.1389 52.5946 41.1369C52.5935 41.1348 52.5925 41.1328 52.5915 41.1307C52.5905 41.1287 52.5895 41.1267 52.5884 41.1246C52.5874 41.1226 52.5864 41.1205 52.5854 41.1185C52.5844 41.1164 52.5833 41.1144 52.5823 41.1124C52.5813 41.1103 52.5803 41.1083 52.5792 41.1062C52.5782 41.1042 52.5772 41.1022 52.5762 41.1001C52.5752 41.0981 52.5741 41.096 52.5731 41.094C52.5721 41.0919 52.5711 41.0899 52.5701 41.0879C52.569 41.0858 52.568 41.0838 52.567 41.0817C52.566 41.0797 52.565 41.0777 52.5639 41.0756C52.5629 41.0736 52.5619 41.0715 52.5609 41.0695C52.5599 41.0674 52.5588 41.0654 52.5578 41.0634C52.5568 41.0613 52.5558 41.0593 52.5547 41.0572C52.5537 41.0552 52.5527 41.0532 52.5517 41.0511C52.5507 41.0491 52.5496 41.047 52.5486 41.045C52.5476 41.0429 52.5466 41.0409 52.5456 41.0389C52.5445 41.0368 52.5435 41.0348 52.5425 41.0327C52.5415 41.0307 52.5405 41.0287 52.5394 41.0266C52.5384 41.0246 52.5374 41.0225 52.5364 41.0205C52.5354 41.0184 52.5343 41.0164 52.5333 41.0144C52.5323 41.0123 52.5313 41.0103 52.5302 41.0082C52.5292 41.0062 52.5282 41.0042 52.5272 41.0021C52.5262 41.0001 52.5251 40.998 52.5241 40.996C52.5231 40.9939 52.5221 40.9919 52.5211 40.9899C52.52 40.9878 52.519 40.9858 52.518 40.9837C52.517 40.9817 52.516 40.9797 52.5149 40.9776C52.5139 40.9756 52.5129 40.9735 52.5119 40.9715C52.5109 40.9694 52.5098 40.9674 52.5088 40.9654C52.5078 40.9633 52.5068 40.9613 52.5057 40.9592C52.5047 40.9572 52.5037 40.9552 52.5027 40.9531C52.5017 40.9511 52.5006 40.949 52.4996 40.947C52.4986 40.9449 52.4976 40.9429 52.4966 40.9409C52.4955 40.9388 52.4945 40.9368 52.4935 40.9347C52.4925 40.9327 52.4915 40.9307 52.4904 40.9286C52.4894 40.9266 52.4884 40.9245 52.4874 40.9225C52.4864 40.9204 52.4853 40.9184 52.4843 40.9164C52.4833 40.9143 52.4823 40.9123 52.4812 40.9102C52.4802 40.9082 52.4792 40.9062 52.4782 40.9041C52.4772 40.9021 52.4761 40.9 52.4751 40.898C52.4741 40.8959 52.4731 40.8939 52.4721 40.8919C52.471 40.8898 52.47 40.8878 52.469 40.8857C52.468 40.8837 52.467 40.8817 52.4659 40.8796L50.6771 41.774C50.6781 41.7761 50.6791 41.7781 50.6801 41.7802C50.6812 41.7822 50.6822 41.7842 50.6832 41.7863C50.6842 41.7883 50.6852 41.7904 50.6863 41.7924C50.6873 41.7945 50.6883 41.7965 50.6893 41.7985C50.6904 41.8006 50.6914 41.8026 50.6924 41.8047C50.6934 41.8067 50.6944 41.8087 50.6955 41.8108C50.6965 41.8128 50.6975 41.8149 50.6985 41.8169C50.6995 41.819 50.7006 41.821 50.7016 41.823C50.7026 41.8251 50.7036 41.8271 50.7046 41.8292C50.7057 41.8312 50.7067 41.8332 50.7077 41.8353C50.7087 41.8373 50.7097 41.8394 50.7108 41.8414C50.7118 41.8435 50.7128 41.8455 50.7138 41.8475C50.7149 41.8496 50.7159 41.8516 50.7169 41.8537C50.7179 41.8557 50.7189 41.8577 50.72 41.8598C50.721 41.8618 50.722 41.8639 50.723 41.8659C50.724 41.868 50.7251 41.87 50.7261 41.872C50.7271 41.8741 50.7281 41.8761 50.7291 41.8782C50.7302 41.8802 50.7312 41.8822 50.7322 41.8843C50.7332 41.8863 50.7342 41.8884 50.7353 41.8904C50.7363 41.8925 50.7373 41.8945 50.7383 41.8965C50.7394 41.8986 50.7404 41.9006 50.7414 41.9027C50.7424 41.9047 50.7434 41.9067 50.7445 41.9088C50.7455 41.9108 50.7465 41.9129 50.7475 41.9149C50.7485 41.917 50.7496 41.919 50.7506 41.921C50.7516 41.9231 50.7526 41.9251 50.7536 41.9272C50.7547 41.9292 50.7557 41.9312 50.7567 41.9333C50.7577 41.9353 50.7587 41.9374 50.7598 41.9394C50.7608 41.9415 50.7618 41.9435 50.7628 41.9455C50.7639 41.9476 50.7649 41.9496 50.7659 41.9517C50.7669 41.9537 50.7679 41.9557 50.769 41.9578C50.77 41.9598 50.771 41.9619 50.772 41.9639C50.773 41.966 50.7741 41.968 50.7751 41.97C50.8186 42.0572 50.8295 42.0789 50.8731 42.166C50.9166 42.2531 50.8786 42.177 50.9221 42.264C50.9548 42.3294 50.9139 42.2477 50.9466 42.313C50.9476 42.3151 50.9486 42.3171 50.9496 42.3192C50.9507 42.3212 50.9517 42.3232 50.9527 42.3253C50.9537 42.3273 50.9547 42.3294 50.9558 42.3314C50.9568 42.3335 50.9578 42.3355 50.9588 42.3375C50.9599 42.3396 50.9609 42.3416 50.9619 42.3437C50.9629 42.3457 50.9639 42.3477 50.965 42.3498C50.966 42.3518 50.967 42.3539 50.968 42.3559C50.969 42.358 50.9701 42.36 50.9711 42.362C50.9929 42.4056 50.9983 42.4165 51.0201 42.46C51.0419 42.5036 51.0473 42.5145 51.0691 42.558C51.1565 42.7329 51.1777 42.7752 51.2651 42.95C51.3525 43.1249 51.3737 43.1672 51.4611 43.342C51.5046 43.4292 51.5155 43.4509 51.5591 43.538C51.6026 43.6252 51.6135 43.6469 51.6571 43.734C51.7006 43.8212 51.7115 43.8429 51.7551 43.93C51.7986 44.0172 51.8095 44.0389 51.8531 44.126C51.8966 44.2132 51.9075 44.2349 51.9511 44.322C51.9946 44.4092 52.0055 44.4309 52.0491 44.518C52.0926 44.6052 52.1035 44.6269 52.1471 44.714C52.1906 44.8012 52.2015 44.8229 52.2451 44.91L54.0339 44.0156ZM52.484 40.9178C51.9507 39.728 51.2439 38.7031 50.3572 37.8587L48.9779 39.307C49.6592 39.9558 50.2217 40.7603 50.659 41.7359L52.484 40.9178ZM50.3746 37.8757C49.4352 36.9363 48.2639 36.4628 46.9235 36.4628V38.4628C47.7485 38.4628 48.4065 38.736 48.9604 39.2899L50.3746 37.8757ZM46.9235 36.4628C45.3234 36.4628 43.9475 36.9095 42.99 37.9679L44.473 39.3097C44.9341 38.8001 45.6862 38.4628 46.9235 38.4628V36.4628ZM43.0065 37.9501C42.0817 38.9236 41.6675 40.1999 41.6675 41.6628H43.6675C43.6675 40.5871 43.9627 39.8474 44.4565 39.3276L43.0065 37.9501ZM41.6675 41.6628C41.6675 43.4366 42.1032 45.0084 43.0243 46.3243L44.6627 45.1774C44.0158 44.2532 43.6675 43.0997 43.6675 41.6628H41.6675ZM43.0243 46.3243C43.9026 47.5791 45.0354 48.5639 46.4096 49.2718L47.3255 47.4938C46.2356 46.9324 45.3524 46.1626 44.6627 45.1774L43.0243 46.3243ZM46.4417 49.2876C47.7564 49.9063 49.1983 50.4632 50.7653 50.9601L51.3698 49.0536C49.8754 48.5798 48.5173 48.054 47.2933 47.478L46.4417 49.2876ZM50.7653 50.9601C52.2725 51.438 53.7615 51.971 55.2321 52.5593L55.9749 50.7023C54.4589 50.0959 52.9238 49.5463 51.3698 49.0536L50.7653 50.9601ZM55.24 52.5624C56.7107 53.1364 58.0269 53.8136 59.1928 54.5909L60.3022 52.9268C59.0041 52.0614 57.5576 51.32 55.9671 50.6992L55.24 52.5624ZM59.222 54.6096C60.3199 55.2877 61.2303 56.2838 61.9421 57.6397L63.7129 56.71C62.8568 55.0792 61.7138 53.7979 60.273 52.908L59.222 54.6096ZM61.947 57.6489C62.6345 58.9257 63.0035 60.5268 63.0035 62.4948H65.0035C65.0035 60.2815 64.5885 58.336 63.708 56.7007L61.947 57.6489ZM63.0035 62.4948C63.0035 65.8232 61.6543 68.3913 58.8988 70.2963L60.0362 71.9414C63.3287 69.6651 65.0035 66.4838 65.0035 62.4948H63.0035ZM58.894 70.2996C56.1093 72.2489 52.6065 73.2548 48.3235 73.2548V75.2548C52.9258 75.2548 56.8524 74.17 60.041 71.9381L58.894 70.2996Z" fill="#B7B29A"/>
</svg>
